# xmcd
#
# Track frame offsets:
#	150
#	17321
#	37499
#	62295
#	73125
#	85573
#	103997
#	142324
#	159543
#	178547
#	188690
#	194939
#	211620
#	233236
#	251033
#	267238
#	278926
#	288210
#	300423
#
# Disc length: 4228 seconds
#
# Revision: 1
# Processed by: cddbd v1.5.2PL0 Copyright (c) Steve Scherf et al.
# Submitted via: audiograbber 1.83.01
#
DISCID=18108213
DTITLE=Zur Wachauerin and Die Strottern - Live, glatt und verkehrt
DYEAR=2005
DGENRE=Wienerlied
TTITLE0=Wachau-Blues
TTITLE1=Bei mir is all's verdraht
TTITLE2=Wos si auszoid
TTITLE3=Durch's Reben- und Minneland
TTITLE4=Va Lois aus
TTITLE5=Langsam
TTITLE6=Sowieso
TTITLE7=Es ist alles eine Frage
TTITLE8=Olle bot!
TTITLE9=Gstaundane Woidviertler
TTITLE10=D'Hos'njagd
TTITLE11=Dranglasun
TTITLE12=D'ordentlichen Leut'
TTITLE13=Ned einsagn
TTITLE14=Alphabetische Weinherbstbilanz
TTITLE15=Dorftratsch
TTITLE16=Wachau F!
TTITLE17=Vergiss mein nicht
TTITLE18=Über Kreiz
EXTD=
EXTT0=
EXTT1=
EXTT2=
EXTT3=
EXTT4=
EXTT5=
EXTT6=
EXTT7=
EXTT8=
EXTT9=
EXTT10=
EXTT11=
EXTT12=
EXTT13=
EXTT14=
EXTT15=
EXTT16=
EXTT17=
EXTT18=
PLAYORDER=
